/* XPM */
static char *suse[] = {
/* width height num_colors chars_per_pixel */
"    73    52        3            1",
/* colors */
". c #507c00",
"# c #000000",
"a c #FFFFFF",
/* pixels */
"aaaaaaaaaaaaaaaaaaaaaaaaaaaaaaaaaaaaaaaa.aaaaaaaaaaaaaaaaaaaaaaaaaaaaaaaa",
"aaaaaaaaaaaaaaaaaaaaaaaaaaaaaaa..................aaaaaaaaaaaaaaaaaaaaaaaa",
"aaaaaaaaaaaaaaaaaaaaaaaaaa...........................aaaaaaaaaaaaaaaaaaaa",
"aaaaaaaaaaaaaaaaaaaaaaa.................................aaaaaaaaaaaaaaaaa",
"aaaaaaaaaaaaaaaaaaaa......................................aaaaaaaaaaaaaaa",
"aaaaaaaaaaaaaaaaaa..........................................aaaaaaaaaaaaa",
"aaaaaaaaaaaaaaaa..............................................aaaaaaaaaaa",
"aaaaaaaaaaaaaaa.................................................aaaaaaaaa",
"aaaaaaaaaaaaa.......................................................aaaaa",
"aaaaaaaaaa.a....................................................a.a.a..aa",
"aaaaaaaaa......................................................a.aaa.a...",
"aaaaaaaa.......................................................a...a.a...",
"aaaaaaaa.......................................................a.aa..a...",
"aaaaaaa.........................................................a...a....",
"aaaaaa....................................................a......aaa.....",
"aaaaa.....................................................aaaa...........",
"aaaa.........................................................aaaa....aaaa",
"aaa....................................................a........a.a.a.a..",
"aa.....................................................aa...............a",
"aa..........aaaaaa......................................aa.............aa",
"a.........aaaaaaaaa.......................................a...........aaa",
"a........aaaaaaaaaaa..............................a.......aaa......aaaaaa",
"a........aaaaaaaaaaa.....aaa.....aaaa.....aaa.....aa.......aaaaaaaaaaaaaa",
"a......aaaaaaaaaaaaaa...aaaa....aaaaaaaaaaaaaa...aaa.....aaaaaaaaaaaaaaaa",
"a.....aaaaaaaaaaaaaaa....aaa....aaaaaaaaaaaaaa....aaa....aaaaaaaaaaaaaaaa",
".....aa....aaaaaaaaaa...aaaa....aaaaaaaaaaaaaa...aaaa....aaaaaaaaaaaaaaaa",
".....a......aaaaaaaaa....aaa....aaaaaaaaaaaaaaa...aaa....aaaaaaaaaaaaaaaa",
"a....a..a....aaaaaaaa...aaaa....aaaaaaaaaaaaaaa...aaaa...aaaaaaaaaaaaaaaa",
"a....aa......aaaaaaaa....aaa...aaaaaaaaaaaaaaaaa..aaaa....aaaaaaaaaaaaaaa",
"aa....aaa....aaaaaaaa...aaaa...aaaaaaaaaaaaaaaaa..aaaaa..aaaaaaaaaaaaaaaa",
"aa......a....aaaaaaaaaaaaaaaaaaaaaaaaaaaaaaaaaaaaaaaaaaaaaaaaaaaaaaaaaaaa",
"aaa.....#....aa.########################################################.",
"aaaa.........aa#########################################################.",
"aaaaaa......aaa.........................................................a",
"aaaaaaaaaaaaaaaaaaaaaaaaaaaaaaaaaaaaaaaaaaaaaaaaaaaaaaaaaaaaaaaaaaaaaaaaa",
"aaaaaaaa......aaaaaaaaaaaaaaaaaaaaaaaaaaaaaa......aaaaaaaaaa.............",
"aaaaaaa#########aaaaaaaaaaaaaaaaaaaaaaaaaa#########aaaaaaaaa#############",
"aaaaaa##########.aaaaaaaaaaaaaaaaaaaaaaaa###########aaaaaaaa#############",
"aaaaa###.aaaaa###aaaaaaaaaaaaaaaaaaaaaaaa###aaaaa.###aaaaaaa###aaaaaaaaaa",
"aaaaa###aaaaaaa##aaaaaaaaaaaaaaaaaaaaaaa.###aaaaaa###aaaaaaa###aaaaaaaaaa",
"aaaaa###aaaaaaa##aaaaaaaaaaaaaaaaaaaaaaa.###aaaaaa###.aaaaaa###aaaaaaaaaa",
"aaaaa###.aaaaaaaaaaaaaaa##aaaaaa##aaaaaa.###aaaaaaaaaaaaaaaa###aaaaaaaaaa",
"aaaaa####aaaaaaaaaaaaaaa##aaaaaa##aaaaaaa####aaaaaaaaaaaaaaa###aaaaaaaaaa",
"aaaaaa.######...aaaaaaaa##aaaaaa##aaaaaaa.#######..aaaaaaaaa############a",
"aaaaaaaaa#######.aaaaaaa##aaaaaa##aaaaaaaaaaa.#######aaaaaaa############a",
"aaaaaaaaaaaaa####aaaaaaa##aaaaaa##aaaaaaaaaaaaaaa#####aaaaaa###aaaaaaaaaa",
"aaaaaaaaaaaaaaa##.aaaaaa##aaaaaa##aaaaaaaaaaaaaaaa####aaaaaa###aaaaaaaaaa",
"aaaa####aaaaaaa###aaaaaa##aaaaaa##aaaaaa###aaaaaaaa###aaaaaa###aaaaaaaaaa",
"aaaa####aaaaaaa.##aaaaaa##aaaaaa##aaaaaa.##aaaaaaaa###aaaaaa###aaaaaaaaaa",
"aaaaa###aaaaaaa##aaaaaaa##aaaaaa##aaaaaa.###aaaaaa####aaaaaa###aaaaaaaaaa",
"aaaaa####aaaaa###aaaaaaa###aaaa###aaaaaa.####aaaa####aaaaaaa############.",
"aaaaaa##########.aaaaaaa.#########aaaaaaa############aaaaaaa#############"
};
